<svg width="224" height="36" viewBox="0 0 224 36" fill="none" xmlns="http://www.w3.org/2000/svg">
<path d="M19.3554 11.812C19.2675 10.7141 18.8558 9.85771 18.1202 9.24288C17.3956 8.62805 16.2922 8.32063 14.81 8.32063C13.8658 8.32063 13.0918 8.43591 12.4879 8.66647C11.895 8.88606 11.4559 9.18799 11.1704 9.57225C10.8849 9.95653 10.7367 10.3957 10.7257 10.8898C10.7038 11.296 10.7752 11.6638 10.9398 11.9932C11.1155 12.3116 11.39 12.6025 11.7633 12.866C12.1366 13.1185 12.6142 13.3491 13.1961 13.5577C13.778 13.7663 14.4696 13.9529 15.2711 14.1176L18.0379 14.7105C19.9043 15.1058 21.5018 15.6273 22.8303 16.275C24.1588 16.9228 25.2457 17.6859 26.0911 18.5642C26.9365 19.4315 27.5568 20.4087 27.9521 21.4956C28.3583 22.5826 28.5669 23.7683 28.5779 25.0529C28.5669 27.2707 28.0124 29.1481 26.9145 30.6852C25.8166 32.2223 24.2466 33.3916 22.2045 34.193C20.1733 34.9945 17.7305 35.3952 14.8759 35.3952C11.9444 35.3952 9.38629 34.9616 7.20144 34.0942C5.02756 33.2269 3.33677 31.8929 2.12906 30.0923C0.932333 28.2808 0.328479 25.9641 0.3175 23.1425H9.013C9.06789 24.1745 9.3259 25.0419 9.78703 25.7446C10.2482 26.4472 10.8959 26.9797 11.7303 27.342C12.5757 27.7043 13.5803 27.8855 14.7441 27.8855C15.7213 27.8855 16.5392 27.7647 17.198 27.5232C17.8567 27.2816 18.3563 26.9468 18.6966 26.5186C19.037 26.0904 19.2126 25.6018 19.2236 25.0529C19.2126 24.5369 19.0425 24.0867 18.7131 23.7024C18.3947 23.3072 17.8677 22.9559 17.1321 22.6484C16.3965 22.33 15.4029 22.0336 14.1512 21.7591L10.7916 21.0345C7.80529 20.3867 5.45026 19.3053 3.72653 17.7902C2.01378 16.2641 1.1629 14.1835 1.17387 11.5485C1.1629 9.40757 1.73381 7.53562 2.88662 5.93266C4.05042 4.31873 5.65886 3.06161 7.71197 2.16132C9.77605 1.26103 12.1421 0.810883 14.81 0.810883C17.5328 0.810883 19.8879 1.26652 21.8751 2.17779C23.8623 3.08906 25.3939 4.37362 26.4699 6.03148C27.5568 7.67835 28.1058 9.60519 28.1167 11.812H19.3554ZM32.061 35V1.27201H46.6194C49.1226 1.27201 51.313 1.76607 53.1904 2.7542C55.0678 3.74232 56.5281 5.13118 57.5711 6.92079C58.6141 8.71039 59.1356 10.8019 59.1356 13.1954C59.1356 15.6108 58.5976 17.7023 57.5217 19.47C56.4567 21.2376 54.9581 22.599 53.0257 23.5542C51.1044 24.5094 48.8591 24.987 46.29 24.987H37.5945V17.8725H44.4455C45.5215 17.8725 46.4382 17.6859 47.1958 17.3126C47.9643 16.9283 48.5517 16.3848 48.9579 15.6822C49.3751 14.9795 49.5838 14.1506 49.5838 13.1954C49.5838 12.2292 49.3751 11.4058 48.9579 10.7251C48.5517 10.0334 47.9643 9.50638 47.1958 9.14407C46.4382 8.77078 45.5215 8.58413 44.4455 8.58413H41.2176V35H32.061ZM62.4952 35V1.27201H77.0536C79.5569 1.27201 81.7472 1.72764 83.6246 2.63891C85.5021 3.55018 86.9623 4.8622 88.0053 6.57495C89.0484 8.28769 89.5699 10.3408 89.5699 12.7343C89.5699 15.1497 89.0319 17.1863 87.9559 18.8442C86.891 20.502 85.3923 21.7536 83.46 22.599C81.5386 23.4444 79.2934 23.8671 76.7242 23.8671H68.0287V16.7526H74.8797C75.9557 16.7526 76.8725 16.6209 77.63 16.3574C78.3986 16.0829 78.986 15.6492 79.3922 15.0563C79.8094 14.4635 80.018 13.6894 80.018 12.7343C80.018 11.7681 79.8094 10.9831 79.3922 10.3792C78.986 9.76439 78.3986 9.31425 77.63 9.02879C76.8725 8.73235 75.9557 8.58413 74.8797 8.58413H71.6519V35H62.4952ZM82.2577 19.5194L90.6897 35H80.7426L72.5082 19.5194H82.2577ZM113.433 1.27201H122.59V22.879C122.59 25.4481 121.975 27.6714 120.745 29.5488C119.527 31.4153 117.825 32.8591 115.64 33.8801C113.455 34.8902 110.919 35.3952 108.031 35.3952C105.122 35.3952 102.575 34.8902 100.39 33.8801C98.205 32.8591 96.5032 31.4153 95.2845 29.5488C94.0768 27.6714 93.473 25.4481 93.473 22.879V1.27201H102.63V22.0885C102.63 23.1315 102.86 24.0648 103.321 24.8882C103.782 25.7006 104.419 26.3374 105.232 26.7986C106.055 27.2597 106.988 27.4903 108.031 27.4903C109.085 27.4903 110.019 27.2597 110.831 26.7986C111.643 26.3374 112.28 25.7006 112.741 24.8882C113.203 24.0648 113.433 23.1315 113.433 22.0885V1.27201ZM126.019 8.65001V1.27201H155.334V8.65001H145.189V35H136.164V8.65001H126.019ZM189.869 18.136C189.869 21.8909 189.139 25.0584 187.678 27.6385C186.218 30.2076 184.247 32.1564 181.766 33.4849C179.285 34.8024 176.518 35.4611 173.466 35.4611C170.392 35.4611 167.614 34.7969 165.133 33.4684C162.662 32.1289 160.697 30.1747 159.237 27.6055C157.788 25.0254 157.063 21.8689 157.063 18.136C157.063 14.3811 157.788 11.2191 159.237 8.65001C160.697 6.0699 162.662 4.1211 165.133 2.8036C167.614 1.47512 170.392 0.810883 173.466 0.810883C176.518 0.810883 179.285 1.47512 181.766 2.8036C184.247 4.1211 186.218 6.0699 187.678 8.65001C189.139 11.2191 189.869 14.3811 189.869 18.136ZM180.449 18.136C180.449 16.1158 180.18 14.4141 179.642 13.0307C179.115 11.6363 178.33 10.5823 177.287 9.86869C176.254 9.14407 174.981 8.78176 173.466 8.78176C171.951 8.78176 170.672 9.14407 169.629 9.86869C168.597 10.5823 167.812 11.6363 167.274 13.0307C166.747 14.4141 166.483 16.1158 166.483 18.136C166.483 20.1562 166.747 21.8634 167.274 23.2578C167.812 24.6412 168.597 25.6952 169.629 26.4198C170.672 27.1334 171.951 27.4903 173.466 27.4903C174.981 27.4903 176.254 27.1334 177.287 26.4198C178.33 25.6952 179.115 24.6412 179.642 23.2578C180.18 21.8634 180.449 20.1562 180.449 18.136ZM223.288 1.27201V35H215.646L203.459 17.2796H203.262V35H194.105V1.27201H201.878L213.868 18.9265H214.131V1.27201H223.288Z" fill="#252853"/>
</svg>
